<svg fill="none" height="128" viewBox="0 0 700 128" width="700" xmlns="http://www.w3.org/2000/svg"><g fill="#000"><path d="m380.552 31.7302c4.675-2.1835 5.922-8.7341 3.428-14.6608-2.805-5.9268-8.728-9.35802-13.092-7.17448-4.675 2.18348-5.922 8.73408-3.428 14.66088 2.805 6.2386 8.728 9.358 13.092 7.1744z"/><path d="m370.577 39.5286c-4.988-4.3671-11.534-4.679-14.963-.9358-3.117 3.7432-1.87 10.2938 3.118 14.3489 4.987 4.367 11.533 4.679 14.962.9358 3.117-3.7432 1.87-10.2938-3.117-14.3489z"/><path d="m404.554 23.308c4.987-1.2477 7.481-7.4864 5.922-13.72502-1.558-6.55059-6.857-10.60573-11.845-9.357993-4.987 1.247733-7.481 7.486393-5.923 13.725013 1.871 6.5506 7.17 10.6058 11.846 9.358z"/><path d="m423.88 36.4092c4.987.9358 9.663-3.4312 10.91-9.9818s-1.87-12.4774-6.546-13.4132c-4.987-.9358-9.663 3.4313-10.91 9.9819s1.87 12.4773 6.546 13.4131z"/><path d="m179.495 32.978c-.623-.6239-1.246-.9358-1.87-1.2477h-14.027v-6.5506-.6239c-.312-.6239-.623-1.2477-.935-1.5597-.624-.9358-1.247-1.2477-1.87-1.5596h-.624c-.623 0-.935 0-1.247 0-.623 0-1.247.3119-1.87.6238-.935.6239-1.247 1.2478-1.559 2.1836l-.311.9358v6.2386l-6.546-.3119h-5.611l-3.429.6239h-.312c-.623.3119-1.247.6238-1.558.9358-.624.6238-.936.9358-.936 1.5596v1.8716.6239c.312.6239.624 1.2477.936 1.5597.623.6238.935.9358 1.558.9358l.624.3119 3.117-.3119h5.611l6.857.3119v6.8625h-.935-4.987-5.611c-.624 0-1.247 0-1.87.3119-.936 0-1.871.312-2.806.9358l-.623.312-1.247 1.8716-.312.6238c-.312.9358 0 1.5597 0 2.4955.312.6239.312.9358.624 1.2477l.311.6239 2.182 1.2477 3.429-.3119h11.534v3.4313l-2.494-.312h-.312c-2.182 0-4.364 0-6.546.312-2.805.3119-4.987 1.2477-6.858 3.1193-.935.9358-1.558 1.8716-2.182 2.8074-.623.9358-.935 2.1835-.935 3.4313 0 1.5596 0 3.1193.312 4.679.312 1.5596 1.247 2.8074 2.182 4.367 1.247 1.5597 3.117 2.8074 4.987 3.4313 1.559.6239 3.118.9358 4.676 1.2477h.624c1.558 0 3.428-.3119 4.675-.6238 1.559-.312 3.118-.9358 4.676-2.1836 1.87-1.5596 3.117-3.4312 4.052-5.6148.312-.9358.624-2.1835.936-3.1193 1.246.6239 2.493.9358 3.428 1.8716 1.871 1.2477 3.741 2.4955 5.611 4.3671l.624.6238h1.87.623c.624-.3119 1.247-.6238 1.559-.9358.623-.6238.935-.9358.935-1.5596v-1.5597c0-.6239-.312-1.5597-.935-2.4955-2.182-2.1835-4.676-4.0551-7.481-5.6148-1.87-.9358-4.052-1.8716-5.923-2.8074v-5.6148h12.157.624c.623-.3119 1.246-.6238 1.558-.9358.312-.3119.624-.9358.935-1.2477l.312-.6239v-.6238c0-.6239 0-.9358-.312-1.5597 0-.6239-.311-.9358-.623-1.5597l-.312-.3119-2.182-1.5597h-13.092v-6.8625h13.404.623c.624-.3119 1.247-.6238 1.871-1.2477.623-.6239.935-.9358.935-1.5597v-1.8716-.6238c1.247-2.4955.935-3.1194.311-3.4313zm-29.301 40.2394c-.935 0-1.87 0-2.805-.312-.935-.3119-1.871-.6238-2.494-1.2477l-.312-.3119-.311-1.2478c0-.3119 0-.6238 0-.9358 0-.3119 0-.3119.311-.6238.312-.6239.935-.9358 1.559-.9358.623-.312 1.247-.312 2.494-.312h4.364c.623 0 1.246.312 2.182.312 0 .6238-.312 1.2477-.624 2.1835s-.623 1.8716-1.558 2.4955c-.624.3119-1.247.3119-1.559.6238-.623.312-1.247.312-1.247.312z"/><path d="m220.33 31.1064c-2.182-1.2478-4.676-2.4955-7.169-3.4313-.936-.3119-1.559-.3119-2.494 0-.624.3119-.935.3119-1.247.6239l-.623.6238-1.247 1.8716v.6239 1.2477c0 .6239.311 1.2478.623 1.5597l.312.6239.623.3119c1.871.6239 3.429 1.5597 5.299 2.4955.936.6238 1.871 1.2477 2.806 1.8716-.935.9358-1.87 1.5596-2.806 2.1835-2.182 1.5597-4.052 3.1193-5.61 4.9909v.9358 3.4313l2.805 3.1193c1.87 1.8716 3.429 3.7432 4.364 5.9268.935 1.8716 1.559 4.0551 1.559 6.2386 0 .9358-.312 1.5597-.624 2.1835-.623.9358-1.247 1.8716-2.182 2.8074 0 .312-.312.312-.312.312s-.311 0-.311.3119c-.624-.6239-1.559-.9358-2.182-1.5596-.624-.312-1.559-.9358-1.871-1.5597l-.623-.6239h-.935c-.624 0-.935 0-1.247 0-.623 0-1.247.312-1.559.6239l-.623.3119-1.559 2.8074 1.247 3.1193.624.312c1.247.9358 2.182 1.5596 3.429 2.4954 1.246.9358 2.805 1.5597 4.052 2.1836l.623.3119h.624c1.247 0 2.182-.3119 3.117-.6239 1.247-.3119 2.182-.9358 3.429-1.8716 1.247-1.2477 2.493-2.8074 3.74-4.367 1.247-1.5597 1.871-3.7432 2.182-5.6148v-.3119-.312c0-1.8716-.311-3.4312-.311-4.9909-.312-1.8716-.936-3.7432-1.559-5.3029-.935-1.8716-1.87-3.4312-3.117-4.9909-.624-.9358-1.247-1.5597-2.182-2.4955.935-.9358 2.182-1.8716 3.429-2.4954 2.182-1.5597 4.052-3.4313 5.299-5.9268l.312-.6238v-1.8716c0-.9358-.312-1.8716-1.247-2.8074-2.182-1.8716-4.364-3.4313-6.858-4.679z"/><path d="m203.809 56.373v-1.8716-.6239c-.312-.6239-.623-1.2477-1.247-1.8716-.623-.6239-.935-.9358-1.558-.9358h-1.871c-.623 0-1.558.3119-2.493.9358l-.312.3119c-1.559 2.1836-3.117 4.0552-4.364 6.2387s-2.805 4.3671-3.741 6.5506l-.311.3119v1.5597.6239c.311.6238.623 1.2477.935 1.5596.623.6239.935.9358 1.558.9358h2.806l.623-.9358c1.871-1.8716 3.429-4.367 4.676-6.5506 1.247-2.1835 2.805-4.367 4.052-6.2386z"/><path d="m241.838 58.2445c-1.558-2.4954-3.428-4.679-5.299-6.8625l-.623-.6239h-.935c-.624 0-.935 0-1.247 0-.624 0-1.247.312-1.559.6239l-.311.312-1.871 3.1193.935 1.2477c1.559 2.1835 3.118 4.3671 4.364 6.8625 1.559 2.1836 3.118 4.679 4.676 6.8626l.312.3119 1.87.9358h1.87.312c.624-.3119 1.247-.6239 1.559-.9358.623-.6239.935-.9358.935-1.5597v-2.4954l-.624-.6239c-1.246-2.4955-2.805-4.679-4.364-7.1745z"/><path d="m273.945 68.8503c-.312-.312-.935-.9358-1.558-.9358h-2.494l-.624.6238c-.935.9358-1.87 1.8716-3.117 2.4955-.312 0-.312.3119-.623.3119 0-1.2477-.312-2.8074-.624-4.0551v-13.4131l.312-.9358v-1.5597-.6239c-.312-.6238-.623-.9358-.935-1.5596-.624-.6239-.935-.9358-1.559-.9358h-1.558c-.624 0-1.559.3119-2.182.9358-.935.9358-1.559 1.8716-1.559 3.1193v.9358 14.6609.3119c.312 1.8716.624 3.7432.935 5.3029.312 2.1835.935 4.0551 1.559 5.9267l.312.3119.311.3119c.312.312.624.6239.935.9358.312.312.936.6239 1.559.6239h.623l1.559-.3119.312-.312c1.558-.9358 3.117-2.1835 4.675-3.1193 1.871-1.2477 3.429-2.8074 4.676-4.367l.624-.6239v-1.8716-.6239c-.624-.6238-.935-1.2477-1.559-1.5596z"/><path d="m291.089 62.9235c-.623-2.4954-1.558-5.3028-2.493-7.7983l-.312-.3119c-.312-.3119-.312-.6239-.623-1.2477-.624-.6239-1.247-1.2478-1.871-1.8716l-.623-.312h-1.247-.623c-.624.312-1.247.6239-1.559.9358-.623.6239-.935.9358-.935 1.5597l-.312.9358.312.6238c.935 2.4955 1.87 5.3029 2.494 7.7984.623 2.4954 1.558 5.3028 2.182 8.1102l.311.6239c.312.3119.312.6239.624 1.2477.311.6239.935 1.2478 1.87 1.5597l.312.3119h1.558.312c.623-.3119.935-.6238 1.559-.9358.623-.3119.935-.9358.935-1.5596l.311-.6239v-.6239c-.623-3.1193-1.246-5.9267-2.182-8.4222z"/><path d="m349.692 67.2906c-.624-.6239-.935-.9358-1.559-.9358l-.935-.3119-.935.3119c-1.247.6239-2.805 1.2477-4.052 1.8716-.935.6239-2.182.9358-3.118 1.2477-.935 0-1.558 0-2.182-.3119-.623-.3119-1.558-.6239-2.182-.9358-1.246-1.5597-2.182-3.1193-2.493-4.9909-.624-2.8074-1.559-4.991-3.429-7.4864-.935-.9358-1.87-1.5597-2.806-2.1836-.935-.6238-2.182-1.2477-3.74-1.2477-.935 0-1.87 0-2.806 0 1.247-2.4955 2.494-4.679 3.741-7.1744 2.182-4.0552 4.676-8.1103 6.858-11.8535l.311-.6239v-2.1835-.6239c-.311-.6238-.623-1.2477-.935-1.5596-.623-.6239-.935-.9358-1.87-1.2478-.935-.3119-1.559 0-2.494.312-.623.3119-1.247.6238-1.558.9358l-.312.3119c-4.364 6.8625-8.416 14.3489-12.157 21.5234-3.74 7.4864-6.858 15.2847-9.04 23.395v1.8716.6238c.312.6239.624 1.2478.936 1.5597.623.6239.935.9358 1.558.9358h.624 1.246c.624 0 1.247-.3119 1.559-.6239h.623l.312-.6238c1.247-2.4955 2.182-5.3029 3.429-7.7984.935-2.4954 2.182-4.679 3.741-6.8625.623-.6239 1.246-1.2477 2.182-1.8716.623-.3119.935-.6239 1.558-.9358h1.559c.311 0 .623 0 .623.3119 1.247 1.5597 2.182 3.4313 2.494 5.6148.623 2.8074 2.182 5.6148 4.364 7.7984 1.247 1.2477 2.805 2.1835 4.364 2.8074 1.558.6238 3.117.9358 4.676.9358 1.558 0 2.805-.312 4.052-.6239.935-.3119 2.182-.6239 3.117-.9358l.624-.3119c.623-.312 1.558-.9358 2.182-1.2478 1.246-.6238 1.87-1.5596 2.493-2.8074l.312-.6238v-1.5597-.6239c0-.3119-.312-.9358-.935-1.2477z"/><path d="m417.646 41.4002c-3.429-1.8716-5.923-5.3029-9.663-8.4222-3.429-2.8074-8.417-3.7432-12.781-2.1836-4.675 1.5597-7.793 5.3029-8.728 9.67-1.247 4.679-.935 9.046-2.494 12.7892-1.558 3.7432-11.845 7.7984-8.416 20.2757 2.494 9.046 12.781 13.4131 21.509 10.2938 6.546-2.1836 9.974-6.2387 14.027-7.4864 3.74-1.2478 8.728-.6239 15.585-2.8074 8.728-3.1193 14.028-12.7893 10.287-21.5234-5.299-12.1654-15.897-8.7341-19.326-10.6057zm.623 26.2024-.312.6238c-.311.3119-.623.312-.935.6239 0 0-.311 0-.623.3119h-.312-.312c-.311 0-.623 0-.935-.3119-.311-.3119-.623-.312-.935-.6239v-.3119l-.312-.9358v-.3119c.312-1.2478.312-2.1836.312-3.4313s-.312-2.4955-.623-3.4313c-.312-1.5596-.624-2.8074-1.247-3.7432-.624-.9358-1.247-1.8716-2.494-2.1835-.935-.3119-1.87-.6239-2.805-.6239-.624 0-1.247 0-1.871 0 .312 2.8074.312 5.6148.312 8.4222 0 3.4313-.935 6.5506-2.182 9.6699l-.312.312c-.623.6238-1.246 1.2477-1.87 1.5596-.623.312-1.247.6239-2.182.6239h-.312-.311c-.624 0-1.247 0-1.871-.3119-.623-.3119-1.246-.6239-1.87-.9358-1.247-.9358-1.87-1.8716-2.494-3.1194-.623-1.2477-.935-2.4954-1.246-3.7431-.312-1.5597-.312-3.4313 0-4.991.311-1.5596.935-3.4312 1.87-4.679.623-1.5596 1.87-2.8074 3.117-3.7432 1.247-1.2477 2.805-1.8716 4.364-2.4954l3.117-.6239c1.87-.3119 3.429-.3119 5.299 0 1.871.3119 3.429.9358 4.988 2.1835 1.558 1.2478 2.805 2.8074 3.117 4.679.623 1.5597.935 3.4313 1.247 4.991.311 1.2477.311 2.4954.311 3.7432.936.3119.624 1.5596.312 2.8074z"/><path d="m398.943 55.1252c-.935.9358-1.871 2.1835-2.494 3.4313-.623.9358-.623 2.1835-.935 3.4312 0 1.2478 0 2.4955.312 3.7432.311.6239.311 1.2478.935 1.8716.311.312.623.9358 1.247 1.2478h.623l.935-.6239c.935-2.4955 1.559-4.9909 1.559-7.4864 0-2.1835 0-4.679-.312-6.8625-.623 0-1.247.6238-1.87 1.2477z"/><path d="m489.652 59.4923c-.624-.6239-.935-.9358-1.559-.9358h-.623c-.624 0-.935 0-1.247 0-.623 0-.935.3119-1.559.6239l-.623.3119-.312.9358c-.311 1.2477-.935 2.4955-1.558 3.7432-.624 1.2477-1.247 2.1835-1.871 3.1193-1.246 1.2478-2.493 2.1836-4.052 3.1194-1.247.6238-2.494 1.2477-4.052 1.2477-.935 0-1.87 0-2.494-.3119-.623-.312-1.247-.6239-1.87-.9358-3.741-4.0552-5.611-8.7342-5.923-14.349l-.935-17.7802v-8.4221-.6239c-.312-.6239-.623-1.2478-.935-1.5597-.623-.6239-.935-.9358-1.559-.9358h-.623c-.623 0-.935 0-1.247 0-.623 0-1.247.312-1.558.6239-.936.3119-1.559 1.2477-1.871 2.1835l-1.247.9358v8.1103c.312 6.2386.624 12.1654.936 18.404.311 6.8626 2.805 12.7893 7.169 18.0922 1.247 1.2477 2.494 2.1835 3.741 3.1193 1.246.6239 2.805 1.2477 4.364 1.5597h.311 1.871c2.805 0 5.299-.6239 7.481-1.5597 2.493-1.2477 4.987-2.8074 7.481-4.9909 1.247-1.2478 2.182-2.8074 3.117-4.3671s1.559-3.1193 2.182-4.679v-2.4955-.6238c0-.6239-.312-.9358-.935-1.5597z"/><path d="m526.122 59.8042c-1.246-1.2477-2.493-2.4955-4.052-2.8074-1.247-.6239-2.805-.9358-4.364-.9358h-3.74c-2.182 0-4.053.3119-5.923.9358s-3.74 1.2477-5.299 2.1835c-.623.312-.935.312-1.247.9358-.623.312-.935.9358-1.247 1.5597l-.312.3119v1.2478.6238c.312.6239.624.9358.936 1.5597.311.3119.935.6239 1.558.9358l.935.3119.936-.3119c1.558-.6239 3.428-1.5597 5.299-2.1835 1.558-.6239 3.117-.9358 4.675-.9358h3.429c.624 0 1.247 0 1.559.3119.311 0 .935.3119.935.3119.312.312.623.6239.623.9358.312.312.312.6239.312.9358v.6239c0 .3119-.312.6239-.312.9358-.311.6239-.623 1.5597-1.247 2.1835-.311.6239-.935 1.2478-1.558 1.8716l-1.247 1.5597v1.2477.6239c.312.6239.623.9358.935 1.5597.312.3119.935.6238 1.559.9358h.311.624c.623 0 .935 0 1.558-.312.312-.3119.624-.3119.936-.6238l.311-.312c1.247-1.2477 2.182-2.4954 3.117-3.7432.936-1.5596 1.559-2.8074 1.871-4.679v-.3119c0-1.2477 0-2.4955-.312-3.7432 0-1.2477-.623-2.4955-1.559-3.7432z"/><path d="m594.076 27.0512c-.311-1.5596-.623-2.8074-1.558-4.0551-.624-.9358-1.559-1.5597-2.182-1.8716-.312 0-.624-.3119-.935-.6239-.312-.3119-.624-.6238-1.247-.6238-1.559 0-3.117 0-4.364.3119-1.559.3119-2.806.9358-4.364 1.8716-.935.9358-1.559 1.8716-1.871 2.8074-.311.9358-.623 1.8716-.623 2.8074v.3119l.312 1.5597h-7.17l-5.299-.3119h-2.182c-.623 0-1.247 0-1.87.3119h-.312-.935c-.623 0-1.247.3119-2.182.6239-.312.3119-.623.3119-.623.6238l-.312.6239c-.312.3119-.312.9358-.312 1.2477l.312 1.8716c0 .6239.623 1.2478 1.247 1.5597l1.87.6239h.935l1.559-.312c1.87 0 3.74 0 5.922.312 1.247 0 2.494 0 3.741.3119l.312 5.6148v.9358c-1.871 0-4.053 0-6.235.3119-2.805 0-5.922.6239-8.728.9358-.623 0-.935.3119-1.247.9358l-.311.6239c-.312.3119-.312.6238-.312.9358v.9358c0 .9358.312 1.5596.935 2.1835l.312.3119.623.312c.312.3119.935.3119 1.247.3119 1.87-.3119 3.741-.3119 5.611-.6239 1.87 0 3.741-.3119 5.611-.3119h2.494v1.2477c0 1.2478.311 2.4955.311 3.4313v5.9267.6239s0 0-.311 0c-1.247-.3119-2.182-.9358-3.429-1.2477-.312 0-.312 0-.624 0h-5.299c-.312 0-.623 0-.935.3119l-3.741 2.1835c-.311 0-.311.312-.623.6239-.312.6239-.935 1.2477-1.247 1.8716-.623.6239-.935 1.5597-1.247 2.8074v.6239c0 1.5596.312 3.1193.935 4.679.624 1.2477 1.247 2.8074 2.494 3.7432l.312.3119c.935.6239 2.182 1.2477 3.117 1.2477s1.559.312 2.182.312h.312 1.87c1.559 0 3.117-.312 4.676-.9358 1.558-.6239 3.429-1.5597 4.987-2.8074.935-.9358 1.559-1.8716 2.182-2.8074 0 0 0-.312.312-.312.312.312.935.6239 1.247.9358 1.247.9358 2.805 1.8716 4.052 2.8074.935.6239 1.87.312 2.806 0 .623-.3119 1.558-.6238 2.182-1.8716 0-.3119.311-.6238.311-.9358v-1.5596c0-.6239-.311-1.2478-.935-1.5597-1.558-.9358-3.117-1.8716-4.676-2.8074-1.247-.9358-2.182-1.5597-3.429-2.1835l.312-3.4313v-6.2387l-.312-2.8074v-2.1835h5.3c.935 0 2.182-.3119 3.429-1.8716.311-.3119.311-.9358.311-1.2477v-1.5597c0-.6239-.312-.9358-.623-1.2477-1.247-.9358-2.494-1.2478-3.429-1.2478-.312 0-.935 0-1.247 0s-.312 0-.623 0h-2.806-.312c0-.6238 0-1.5596 0-2.1835 0-1.2477-.311-2.4954-.311-3.4312.935.3119 1.558 0 2.182 0h.311c.312 0 .624.3119.936.3119.623.3119 1.246.6239 2.182.9358.311.3119.935.3119 1.558 0 .624-.3119 1.247-.3119 1.871-.3119 1.246 0 2.181-.6239 3.428-1.5597.624-.6239 1.247-1.2477 1.871-2.1835.623-.9358 1.247-1.8716 1.558-3.4313-.935-1.5597-.935-3.1193-1.247-4.3671zm-7.169 1.5597v1.5597c0 .3119-.312.6238-.623.9358-.312 0-.624 0-.936 0-.311 0-.623 0-.935 0 0-.312-.312-.9358-.312-.9358 0-.6239 0-.9358 0-1.5597 0-.3119 0-.3119 0-.6239l.624-.3119h1.247.312c0 .3119.311.6239.311.6239.312 0 .312 0 .312.3119zm-19.326 43.0468-.936.3119c-.935 0-1.558 0-2.493 0-.624 0-1.247-.3119-1.871-.3119-.311-.312-.311-.6239-.623-.9358-.312-.312-.312-.9358-.623-1.2478.311-.3119.311-.6238.623-.9358l1.559-.6238c1.558-.312 3.117 0 4.364.3119.935.3119 1.87.6239 2.805.9358 0 0 0 .3119-.312.3119-.311.312-.935.9358-1.247.9358 0 .6239-.623.9358-1.246 1.2478z"/><path d="m551.06 65.1071c-.624-.3119-1.559-.3119-2.182 0-.624 0-1.559.3119-2.182 1.2477l-.935.9358c0-.3119 0-.6238 0-.9358l-.312-4.679v-9.358c.312-3.4312.623-6.8625.935-10.2938.312-3.4312.935-6.8625 1.87-9.9818v-.312c0-.3119 0-.9358 0-1.5596 0-.6239-.623-1.8716-1.87-2.4955-.623-.3119-1.559-.3119-2.182 0-.623 0-1.559.3119-2.182 1.2477-.312.312-.312.6239-.312.6239-.935 3.7432-1.558 7.7983-2.182 11.5415-.311 3.7432-.623 7.4864-.935 11.5416v8.1102l.624 8.4222c.311 2.8074.623 5.6148 1.558 8.4222 0 .6239.312.9358.935 1.2477l.624.312c.311.3119.623.3119.935.3119h.312 1.558c.624 0 .935-.3119 1.247-.6239l3.429-4.0551c.312 0 .312-.3119.623-.3119l3.117-3.1194c.312-.3119.312-.6238.624-.9357.312-.9358.312-1.5597 0-2.4955-1.247-1.2477-1.87-2.1835-3.117-2.8074z"/><path d="m608.415 51.694h3.429c1.247 0 2.182-.9358 3.117-2.8074s1.247-4.3671 1.559-8.1103v-.9358l4.987 6.5506c.312.3119.312.3119.624 0 .311-.6239.311-.9358.311-1.8716v-4.9909c0-.9358 0-1.2478 0-1.5597s-.311-.6239-.623-.9358l-4.364-5.3029.312-2.1835h4.987c.312 0 .624 0 .624-.3119 0-.312 0-.6239 0-1.2478v-2.4954c0-.6239 0-.9358 0-1.2478 0-.3119-.312-.3119-.624-.3119h-4.364v-.9358h4.364c.312 0 .312 0 .624-.3119 0-.312 0-.6239 0-.9358v-2.1836c0-.6238 0-.9358 0-.9358s-.312-.3119-.624-.3119l-4.052.3119v-1.5596c0-.312 0-.312 0-.6239s-.312-.3119-.312-.3119h-1.558c-.312 0-.312 0-.312.3119s-.312.3119-.312.6239l-.623 1.5596h-4.053c-.311 0-.311 0-.623.312 0 .3119-.312.6238-.312.9358l-.311 2.1835v.9358c0 .3119.311.3119.311.3119h4.364v.9358h-4.364c-.311 0-.311 0-.623.312 0 .3119-.312.6238-.312 1.2477l-.623 2.4955v1.2477c0 .3119.311.3119.311.3119h4.988l-.312 1.2478h-2.182c-.935 0-1.87.6238-2.494 1.8716-.623 1.2477-1.558 3.1193-2.182 6.2386l-.311 1.8716c-.624 3.4313-.935 6.2387-.624 7.7984 0 1.8716.935 2.8074 2.182 2.8074zm2.182-10.6058.312-1.8716c0-.3119 0-.6238.312-.9358 0-.3119.311-.3119.311-.3119h1.247s.312 0 .312.3119v.9358l-.312 1.8716c0 .312 0 .6239-.311.9358 0 .312-.312.312-.312.312h-1.247s-.312 0-.312-.312c0-.3119 0-.6238 0-.9358z"/><path d="m624.624 51.0701h2.494c.312 0 .624 0 .624-.3119.311-.312.311-.312.311-.6239v-9.9819c0-.3119 0-.6238-.311-.6238-.312-.312-.312-.312-.624-.312h-2.494c-.311 0-.623 0-.623.312-.312.3119-.312.3119-.312.6238v9.9819c0 .3119 0 .6239.312.6239 0 .3119.312.3119.623.3119z"/><path d="m638.34 39.8405v9.9819c0 .3119 0 .6238.312.6238.311.312.311.3119.623.3119h2.494c.311 0 .623.0001.623-.3119.312-.3119.312-.3119.312-.6238v-9.9819c0-.3119 0-.6239-.312-.6239-.312-.3119-.312-.3119-.623-.3119h-2.494c-.312 0-.623 0-.623.3119 0 .312-.312.312-.312.6239z"/><path d="m628.053 32.0422h5.299l-3.428 4.0551c-.312.3119-.312.9358-.312 1.2477v2.1836c0 .3119 0 .6238.312.9358 0 .3119.311.3119.623.3119h1.87c.312 0 .312 0 .312.3119v.312 4.9909.3119h-.312-2.493c-.312 0-.624 0-.624.312-.312 0-.312.3119-.312.9358v2.1835c0 .3119 0 .6239.312.9358.312 0 .312.3119.624.3119h3.428c1.247 0 2.182-.3119 2.806-1.2477.623-.6239.935-1.8716.935-3.7432v-4.9909c0-1.5597-.312-2.8074-.935-3.7432-.312-.312-.935-.6239-1.559-.9358l4.053-4.991s0-.3119 0-.6238v-1.8716c0-.6239 0-.9358-.312-.9358 0 0-.312-.312-.624-.312h-9.974c-.312 0-.624 0-.624.312 0 0-.312.6238-.312.9358v1.8716c0 .3119 0 .6238.312.9358z"/><path d="m644.262 41.0882h4.053.311v-.3119-1.5597c0-.3119 0-.3119 0-.6238h-.311-.624s-.311 0-.311-.312v-9.046c0-.312 0-.312 0-.6239h-.312-2.806c-.311 0-.311 0-.311 0v.6239 11.5415.3119z"/><path d="m649.873 31.1064h.624s.311 0 .311.3119v6.5506.6239h.312 2.182.312s0-.312 0-.6239v-7.4864c0-.6239 0-1.2477-.312-1.5597-.311-.3119-1.247-.6238-1.87-.6238h-1.559c-.311 0-.311 0-.311 0v.3119 1.5597.6238c0 .312.311.312.311.312z"/><path d="m652.055 50.7581c.312.312.312.6239.624.6239h2.805c.312 0 .624 0 .935-.3119 0-.312.312-.6239.312-1.2478l2.182-13.4131h1.559c.311 0 .311 0 .311.312v.6238l.312 6.8626c0 2.4954.312 4.367 1.247 5.6147.623 1.2478 1.87 1.8717 3.117 1.8717h5.611c.312 0 .623 0 .623-.312 0-.3119.312-.6238.312-1.2477l-.312-3.1193c0-.6239 0-.9358-.311-1.2478-.312-.3119-.312-.3119-.624-.3119h-4.364c-.311 0-.311 0-.311-.3119 0-.312 0-.312 0-.6239l-.312-6.8625c0-2.4955-.624-4.0552-1.247-5.3029-.623-.9358-1.559-1.5597-2.805-1.5597h-1.559l2.494-15.2847c0-.6239 0-.9358 0-1.2477 0-.312-.312-.312-.624-.312h-3.117c-.312 0-.312 0-.623.312 0 .3119-.312.6238-.312 1.2477l-6.234 34.6246c0-.3119 0 .3119.311.6238z"/><path d="m623.689 109.09c0-.312-.311-.624-.623-.936s-.624-.624-.935-.624l-4.053-.312c-.311 0-.623 0-.935.312-.311.312-.311.624-.311.936l.935 8.734v.624s-.312 0-.624 0l-3.117-.624c-.312 0-.312 0-.623-.312 0 0-.312-.312-.312-.624l-3.429-24.6426c0-.3119-.312-.9358-.623-1.2477-.312-.3119-.624-.6239-.935-.6239h-9.664c-.311 0-.623 0-.623.312 0 .3119-.312.6238 0 .9358l4.364 22.7714c.312 1.871.935 3.431 1.87 4.367s2.182 1.559 3.429 1.871l11.534 2.496c1.87.312 3.117.312 4.052-.624.935-.624 1.247-2.184.935-4.367z"/><path d="m642.08 100.979h-15.897c-.312 0-.623 0-.935.312s-.312.624-.312.936l.312 7.175c0 .623 0 .935.312.935.311 0 .311.312.935.312h14.027c.312 0 .312 0 .312.312v.624 5.303.312l-.312.312h-10.287c-.311 0-.623 0-.623.312s-.312.312-.312.936l.312 4.679c0 .311 0 .623.312.935.311 0 .311.312.623.312h10.91c1.247 0 2.182-.312 2.805-1.247.624-.624.936-1.872.936-3.744l.311-12.477c0-1.872-.311-3.431-.935-4.367 0-1.248-1.247-1.872-2.494-1.872z"/><path d="m674.499 87.5663c-1.559 0-2.806.6238-4.052 2.1835-1.247 1.5597-1.871 3.1193-2.182 4.9909-.312 1.8716 0 3.4313.935 4.679.623 1.2473 1.87 1.8713 3.117 1.8713s2.494-.624 3.74-1.8713c1.247-1.2477 1.871-2.8074 2.182-4.679.312-1.8716.312-3.4312-.623-4.9909-.623-1.5597-1.559-2.1835-3.117-2.1835zm0 7.1744c0 .6239-.312.9358-.624 1.2478-.311.3119-.623.6238-.935.6238-.311 0-.623 0-.935-.3119s-.312-.6239-.312-1.2477c0-.6239.312-.9358.624-1.2478.312-.3119.623-.6238.935-.6238s.623 0 .935.6238c.312 0 .624.312.312.9358z"/><path d="m621.819 62.2997c-.312 0-.312.3119-.312.3119v13.4132c0 .3119 0 .3119.312.3119h1.247 6.546c.623 0 .935 0 1.247-.3119.311 0 .311-.312.311-.312v-14.037h-8.104c-.312.3119-.935.3119-1.247.6239z"/><path d="m672.629 52.9417h-70.136l-4.988 32.753h80.111zm-2.182 23.083c0 1.8716-.936 3.1194-3.118 3.7432-2.182.9358-5.299 1.2478-9.663 1.2478h-5.922c-.935 0-1.871 0-2.494-.312-.624 0-.624-.3119-.624-.9358v-1.8716c0-.3119.312-.6238.624-.9358.623-.3119 1.247-.3119 2.494-.3119h2.182 1.246c.312 0 .312-.3119.312-.3119v-13.4132c0-.3119 0-.3119-.312-.3119-.311 0-.623-.3119-1.246-.3119h-8.105v14.037c0 1.8716-.935 3.1193-3.117 3.7432-2.182.9358-5.299 1.2477-9.663 1.2477h-13.716c-4.052 0-7.481-.3119-9.663-1.2477s-3.117-2.1836-3.117-3.7432v-13.4132c0-1.8716.935-3.1193 3.117-3.7432 2.182-.9358 5.299-1.2477 9.663-1.2477h38.341c4.053 0 7.481.3119 9.663 1.2477s3.118 2.1836 3.118 3.7432z"/><path d="m690.396 30.1706c-1.247-2.8074-4.364-4.3671-7.481-3.1194-2.805 1.2478-4.364 4.3671-3.117 7.4864 0 .312 14.962 38.6797 5.923 60.827-4.988 12.1654-10.91 14.0374-13.404 13.1014-.624-.312-1.247-.312-1.87-.312l.311-2.184 3.429-.312c.624 0 .935-.312.935-.312.312-.311.312-.623.312-1.247l.312-2.808c0-.312 0-.312 0-.624-1.247 1.248-2.494 1.872-4.053 1.872-1.558 0-2.805-.624-3.74-2.183-.935-1.5601-1.247-3.4317-.935-5.6153.311-1.8716.935-3.7432 1.87-4.9909h-9.351c-.624 0-.936 0-1.247.3119-.312.312-.312.9358-.312 1.5597l-.312 3.1193c0 .6239 0 .9358.312 1.2478.312.3119.623.3119.935.3119l6.546-.3119-.312 3.4312-6.546.312c-.623 0-.935 0-.935.3123-.312.312-.312.623-.312 1.559l-.311 2.808c0 .624 0 .935.311 1.247.312.312.624.312.936.312l6.234-.312-.312 3.12h-2.182c-1.558 0-3.117.624-4.052 1.871-.935 1.248-1.559 2.808-1.87 4.991v1.248.624c-.312 0-.312 0-.624 0h-.312c-.311 0-.623-.312-.623-.624l2.182-25.8905c0-.6238 0-1.2477 0-1.5596-.312-.312-.623-.312-.935-.312h-4.052c-.624 0-.936 0-1.247.312-.312.3119-.312.6238-.312 1.5596l-1.87 31.8175c0 .312 0 .624.311.936 0 0 .624.311.936 0l5.61-.624c.312 0 .624 0 .936-.312.311-.312.311-.312.311-.936v-1.248c0 .312.312.624.624.936.623.936 1.87 1.248 3.429.936l2.805-.312c1.559 0 2.806-.624 3.741-1.56.311-.624.935-1.248 1.246-1.871.936.312 2.806.935 4.988.935 1.87 0 4.364-.312 6.858-1.247 6.546-2.808 11.845-9.046 15.897-19.0283 11.222-26.2024-4.676-67.6895-5.611-69.2491zm-26.807 86.4054c0 .312 0 .312-.312.624-.312 0-.312.312-.623.312-.312 0-.312 0-.312 0s0-.312 0-.624v-1.248c0-.312 0-.312.312-.624 0-.312.311-.312.623-.312s.312 0 .312.312.311.312 0 .624z"/><path d="m71.9537 50.4463h.3117c.3117 0 .3117 0 .6235-.312l.6234-.3119.3117.6239h.9351c0-.312 0-.6239 0-1.8716v-17.4683c0-.9358 0-1.5597-.3117-1.8716 0-.3119-.3117-.3119-.3117-.6239l-.6234-.3119v1.2477 10.6058c0 .9358 0 1.5596-.3117 2.1835 0 1.2477-.6235 1.2477-.9352 1.2477h-.3117c-.6234 0-.9351-.6238-1.2468-1.5596-.3118-.6239-.3118-1.8716-.3118-3.1194v-10.2938c0-.9358 0-1.5596-.3117-2.1835 0-.3119-.3117-.6239-.6234-.9358l-1.2469-.6239v1.5597 11.8535c0 4.679.3117 7.7983 1.2469 9.6699.6234 1.8716 1.2469 2.4955 2.4937 2.4955z"/><path d="m79.1232 37.657v11.5415c0 .9358 0 1.2478.3117 1.2478h1.2468s.3118-.312 0-1.2478v-11.5415h.6235 1.2468s.3118-.6239.3118-1.5597v-1.8716c0-.9358 0-1.2477-.3118-1.5596h-1.8703v-.9358c0-.6239 0-1.2478.3118-1.5597.3117-.3119.6234-.6239 1.2468-.6239h.3117s0-.3119 0-1.2477 0-1.2477-.3117-1.2477h-.3117c-1.2469 0-1.8703.3119-2.4937 1.2477-.6234.6239-.9352 1.8716-.9352 3.4313v.6238h-.6234-.9351s-.3117.6239-.3117 1.8716v1.5597c0 .9358 0 1.2477.3117 1.5597h2.182z"/><path d="m86.6043 37.9689v11.5415c0 .9358 0 1.2477.3117 1.2477h1.2469s.3117-.3119 0-1.2477v-11.5415h.6234 1.2469s.3117-.6239.3117-1.5597v-1.8716c0-.9358 0-1.2477-.3117-1.5596h-1.8703v-.9358c0-.6239 0-1.2478.3117-1.5597s.6234-.6239 1.2469-.6239h.3117s0-.3119 0-1.2477 0-1.2477-.3117-1.2477h-.3117c-1.2469 0-1.8703.3119-2.4938 1.2477-.6234.6239-.9351 1.8716-.9351 3.4313v.6238h-.6234-.9352s-.3117.6239-.3117 1.8716v1.5597c0 .9358 0 1.2477.3117 1.5597h2.182z"/><path d="m97.5143 20.8126c.3118-.9358.6235-1.5597.6235-2.8074-.3117.3119-.6235.9358-1.5586 2.1835l-2.182 3.1193c-.6234.9358-.9352 1.5597-.9352 2.1836-.3117.6238-.3117.9358-.3117 1.5596l2.4938-3.1193c.9351-1.2477 1.5585-2.1835 1.8702-3.1193z"/><path d="m96.5792 27.0512-2.182 2.4955c-.3117.3119-.9352.9358-.9352 1.5597-.3117.6238-.3117 1.2477-.3117 1.8716l.3117 15.2847c0 .6239.3118 1.2477.3118 1.2477s.3117.312.9351.312l2.4937.3119h.6235c.3117 0 .6234 0 .9351-.3119 0 0 .3117-.6239.3117-1.5597l-.3117-21.8353c0-.6239 0-.9358 0-.9358-.9351 0-1.2469.6238-2.182 1.5596z"/><path d="m101.255 47.3269c.312.3119.312.6239.312 1.2477 0 .312 0 .6239.311.9358.312.9358.312.9358.312.9358h1.559s.311-.3119.311-.9358c0-.9358 0-2.8074-.311-4.9909l-1.871-15.9086c0-1.2477 0-2.1835 0-3.1193s.312-1.5597.935-2.1835c.312-.312.624-.312.936-.312.623 0 .935.312 1.247.9358.311.6239.623 1.8716.935 3.7432l2.493 15.9086c.312 2.4955.624 4.0551 1.247 5.3029.312.6238.624 1.5596 1.247 1.5596l2.806.312c.311 0 .311-1.2478.623-1.2478 0-1.2477-.312-3.4312-.623-6.2386l-4.676-21.8353c-1.559-6.5506-2.494-8.7342-3.117-9.358-.936.6238-1.247.3119-1.559.3119s-.935.3119-1.247.9358l-.312.3119c-.311.312-.311.312-.623.6239l-.312.3119-.311.9358h-.312l-.624.9358c-.311.312-.311.312-.311.9358v4.991z"/><path d="m78.8114 58.5565c-2.8054-2.4955-6.8577-3.7432-12.7803-3.7432h-1.8703c-1.2468 0-2.4937 0-3.7405.3119-.6235 0-1.2469 0-1.5586.312h-.3117-.3117c-.3118-.312-1.2469-.6239-2.8055-.6239h-5.2991c-1.5586 0-2.8055.3119-3.4289.9358s-1.2469 1.5597-1.5586 3.1193l-6.546 31.5053c-.3117 1.5596-.3117 2.4954.3117 3.1193s1.8703.9358 3.1172.9358h5.9226c1.5585 0 2.8054-.3119 3.7405-.9358.6235-.6239 1.2469-1.8716 1.5586-3.4313l3.4289-18.716c.3117-1.5596.9351-2.8073 1.8703-3.7431.9351-.9358 2.182-1.5597 4.0523-1.5597h.6234c1.8703 0 3.1171.6238 3.7406 1.8716.6234 1.2477.9351 2.8074.3117 5.3028l-2.8054 17.4683c-.3118 1.5597 0 2.4955.3117 3.1193.3117.6239 1.5585.9358 3.1171.9358h6.2343c1.5586 0 2.4937-.3119 3.4289-.9358.9351-.6238 1.2468-1.8716 1.5586-3.4312l2.182-18.4041c1.2468-6.5506.3117-10.9176-2.4938-13.4131z"/><path d="m83.7989 76.9606c.6234 7.4864 2.8054 12.4773 6.2343 15.2847 2.8054 2.1835 6.8577 3.4312 11.5338 3.4312h2.493l1.871-.3119c5.299-.6239 9.351-2.4955 12.157-5.3029 2.493-2.8074 3.428-7.7983 2.493-14.6608l-.311-2.8074c-.936-6.5506-2.806-11.2296-5.611-14.037-3.117-2.4955-7.481-4.0551-12.781-4.0551h-1.87c-5.6108 0-9.9748 1.5596-12.7803 4.367-2.8054 2.8074-4.0523 7.7984-3.4288 14.9728zm14.3389-7.7984c.6234-1.2477 1.8702-1.8716 3.7402-1.8716h.624c1.558 0 2.805.6239 3.74 1.5597s1.559 2.8074 1.559 5.3029v.9358c.312 2.4954 0 4.0551-.623 5.3028-.624 1.2477-1.871 1.8716-3.741 2.1836h-.935c-1.559 0-2.8057-.6239-3.7408-1.5597-.9351-1.2477-1.5586-2.8074-1.5586-5.3029v-.9358c0-2.8074 0-4.679.9352-5.6148z"/><path d="m42.029 101.291c.6235.312 1.5586.312 2.8055.312h4.9874c1.8703 0 2.4937-.312 2.8054-.312.3118-.312.3118-.624 0-1.247-.3117-.6242-.6234-1.2481-1.2468-1.56-.3117-.312-1.2469-.312-3.4289-.312h-4.9874c-1.8703 0-2.4937.312-2.8055.312-.3117.3119 0 .9358 0 1.2477.9352.6243 1.2469 1.2473 1.8703 1.5593z"/><path d="m54.4976 107.218c-.3117-.936-.6234-1.56-1.2468-1.872-.3117-.311-1.2469-.623-3.4289-.623h-4.364c-1.8703 0-2.182.312-2.4937.312-.3117.311-.3117.623 0 1.559l5.2991 15.597c.3118.624.6235.936.9352.936.6234.312 1.2469.312 2.182.312h4.6757c1.5586 0 1.8703-.312 2.182-.312 0 0 .3117 0 0-.624z"/><path d="m74.7591 99.4197c-1.8702-1.5596-4.6757-2.1835-8.1045-2.4954h-1.2469c-1.2469 0-2.182 0-3.1172.3119h-.3117l-.3117-.3119c-.3117-.3119-.9351-.3119-1.5586-.3119h-3.1171c-.6234 0-1.2469.3119-1.2469.6238 0 .312-.3117.6239 0 2.4955l4.9875 21.8353c.3117.624.3117 1.248.6234 1.248.3117.312.6234.312 1.2469.312h2.8054c.9351 0 .9351-.312.9351-.312s.3118-.312 0-1.248l-.9351-5.615h.9351 1.8703.9352c2.8054 0 4.9874-.624 6.546-1.559 1.5586-.936 2.182-3.12 1.8703-6.239v-1.56c0-3.119-.9352-5.615-2.8055-7.1743zm-4.0522 11.2293c-.6235.624-1.2469.936-2.4938.936h-.3117c-.9351 0-1.8703-.312-2.4937-.936s-.9351-1.559-1.2469-2.807v-.312c-.3117-1.248 0-2.184.3118-2.807.3117-.624.9351-1.248 2.4937-1.248h.3117c1.2468 0 1.8703.312 2.4937.936s.9352 1.559.9352 2.807v.312c.3117 1.56.3117 2.495 0 3.119z"/><path d="m100.943 106.906c.624-3.431 0-5.927-1.5584-7.4863-1.5586-1.5596-4.0523-2.1835-7.4811-2.1835h-1.2469c-1.2469 0-2.182 0-3.4289.3119h-.3117l-.3117-.3119c-.3117-.3119-.6234-.3119-1.5586-.3119h-3.1171c-.6235 0-1.2469.3119-1.5586.6238-.3117.312-.3117.9358-.3117 2.4959l.6234 21.835c0 .624.3117.936.3117 1.248.3117.312.6235.312.9352.312h2.8054c.6234 0 .9352 0 1.2469-.312 0 0 .3117-.624.3117-1.248l.3117-5.927h.9351 1.8703.9352c2.8054 0 4.9874-.624 6.8577-1.559 1.8703-1.248 2.8054-3.12 3.1174-6.239zm-6.8575.936c0 1.248-.3118 2.183-.9352 2.807s-1.5586.936-2.4937.936h-.3117c-1.2469 0-1.8703-.312-2.4937-.936-.3118-.624-.6235-1.559-.6235-2.807v-.312c0-1.248.3117-2.184.9352-2.807.6234-.624 1.5586-.936 2.4937-.936h.3117c1.5586 0 2.182.624 2.4937.936.6235.623.6235 1.559.6235 2.807z"/><path d="m120.893 101.291c-.935-1.8712-3.117-3.119-6.546-3.119h-1.247c-3.429 0-5.922 1.2478-8.104 3.119-2.182 1.872-3.429 5.303-4.053 10.294l-.312 1.872c-.623 4.055-.311 6.862.936 8.11 1.246 1.248 2.805 1.872 5.611 2.184h.935c2.493 0 4.987-.624 6.546-2.184 1.87-1.56 3.429-4.367 4.987-8.422l.624-1.872c1.558-4.367 1.558-7.798.623-9.982zm-7.169 11.23v.624c-.312 1.559-.936 2.495-1.559 3.431-.623.624-1.559 1.248-2.494 1.248h-.311c-1.559 0-1.871-.936-2.182-1.248-.312-.624-.312-1.872 0-3.431v-.624c.311-1.56.935-2.807 1.246-3.431.624-.936 1.559-1.248 2.494-1.248h.312c1.558 0 2.182.936 2.182 1.56.935.312.623 1.559.312 3.119z"/><path d="m51.3805 50.7582s.6234 0 1.5586-2.1836c.6234-1.5596 1.2468-4.0551 1.8703-6.8625l3.7405-19.9637.3118-.9358.9351.3119c.9352.312.9352 1.5597.9352 2.1836 0 .9358-.3118 2.4954-.6235 4.679l-2.4937 14.0369c-.6234 3.1194-.9351 5.3029-.9351 6.8626 0 1.5596.3117 1.8716 0 1.8716h1.8702s.3118-.312.6235-1.8716c.3117-1.5597.6234-3.7432.9351-6.5506l2.182-19.9637.9352.3119c.6234.3119.9351 1.2477.9351 2.1835v4.679l-.9351 13.1012c-.3117 2.8074-.3117 4.9909-.3117 6.2387 0 1.2477.3117 1.5596.3117 1.5596h1.2468s.3117-.6238.3117-1.5596c.3118-1.2478.3118-3.4313.3118-5.9268v-13.725c0-5.6148 0-9.0461-.6235-10.9177-.3117-1.5596-.9351-2.4954-1.5585-2.8074s0 0-.3118 0l-.6234.312-.3117-.6239c-.3117-.6239-.6234-.9358-.9351-1.2477l-.9352-.312v-.3119l-.6234-.6239s-.3117.312-.6235 1.5597l-7.7928 26.5143c-.9352 3.4313-1.5586 5.9267-1.8703 7.7983v1.8716z"/><path d="m28.0019 79.456h-9.9749l-.3117-.6239c-7.79287-14.0369-5.2992-30.8813-2.8054-40.5513l.3117-.6238h11.8452c2.4937 0 4.364-.9358 4.364-6.8626 0-1.5596-1.8703-3.1193-4.364-3.1193h-22.13181l-.62344 2.8074c-.62342 1.5597-12.15688 31.1933 5.29916 58.9554l1.87029 1.5596h11.8452l.3117.6239c5.6109 9.6696 5.6109 16.8446 6.8577 21.5236l.3117.936h-7.4811l.6234 9.358h13.092c1.8703 0 3.4289-.624 4.364-1.56 1.2469-1.248 4.6758-10.918-12.4686-39.9275z"/><path d="m174.82 127.494-.624-.312-.311-.624c.623-.312.935-.936 1.246-1.872l.312-1.247v-4.679l-1.247-.312-3.117 3.743h-.623l-.935-.624v-.312c2.182-2.183 3.74-4.367 4.987-6.862l-.312-.936h-.935l-4.364 4.367h-.623l-.935-.624v-.312l4.675-4.679.935-.624-.311-.936c-.624-.624-1.247-1.247-1.247-1.871l1.247-.312.623.624.624.935.623-.311 3.117-3.12h1.559c.311.312.311.624.311.936l-1.558 1.248c-1.247 1.247-1.87 2.495-2.494 4.055.312 1.248.935 2.495 1.247 4.055v1.56l.312 1.559v2.808l-.312.312v1.559l-1.247 2.496zm8.728-1.248-1.559-.312h-1.558l-.936-.624v-.624l.624-.312v-2.495l.312-.312v-1.872-.312-4.679c.311-.311.623-.311 1.558-.311l1.559.311.935-.935c-.624-1.248-1.247-2.496-1.247-4.055l-1.87-1.248v-.312c.623 0 1.247-.312 1.87-.624l.312-1.56-.312-2.183.935-.312.935.624v2.495c.624.312 1.247.624 2.182.624l.624-1.248v-.935h.935l.935.623.312.936.623.312h1.559l.311.312v.624l-.935.624-1.558-.312-.935.312c-.312 1.871-.624 3.431-1.247 5.615l4.052.935v2.184h-.312v1.872l-.623 3.743v1.871.312c-.935.624-1.87.936-2.806 1.248zm0-1.56c.623-1.247.623-2.495.623-4.055l-1.558-.312-.936.312-.311 1.56.311.624v1.871l1.559.312zm.935-5.926.312-2.808h-1.247l-1.247.624-.312 1.872c.624.624 1.247.935 2.494.312zm2.494-4.056v-1.559l.623-4.367-1.87-.312-.935.624v2.807l.623 2.184zm2.182 9.982.623-1.247v-2.496l-3.117-.624c-.624 1.248-.935 2.496-.935 4.055.623.624 1.247.936 2.182.624zm.623-4.991.312-.623v-2.496c-.624-.936-1.871-1.248-3.117-.936l-.936.936v2.184c.936.623 1.871.935 3.118.935z"/><path d="m198.51 123.439-.935-.624v-.624c1.558-1.872 2.494-3.743 3.429-5.927l1.247-.312.935.624v.624c-1.247 2.183-2.494 4.055-3.429 6.239zm10.598 3.431-1.247-.936v-3.431l-.311-.312v-11.23l-.312-.936c.312-.312.623-.311 1.247-.311l.935.623.312.936v11.542l.311.312v1.559l.312 1.56c-.623.312-.935.624-1.247.624zm9.352-4.055c-1.871-1.56-3.429-3.432-4.676-5.303l-.312-1.56c.312-.312.624-.312 1.247-.312 1.247 2.184 2.806 4.367 4.988 5.927v.624c-.312.624-.624.624-1.247.624z"/><path d="m230.305 126.87-.935-.624v-1.872-.312-1.871l.311-.936-1.246-.312-4.364.624-.936-.624v-.624c2.182-.624 4.364-.936 6.546-1.559l.624-4.056-.935-.311-2.182.623-.624.312v1.872.936l-.311.312-1.559-.936v-3.431l.935-5.303h1.559l.623.312v.624l-.935 3.431 1.87.312 1.247-.624.312-1.872v-3.119-.624l.623-.312 1.247.624v.624l-.312 1.248v2.807c.936.312 1.871.312 2.494.624v.312c-.935.312-1.558.624-2.494.936l-.311.623v2.184l-.312 1.56.623.312 2.806-.624.623.624.312.623c-.935.624-2.494.936-4.676.936l-.311.624v1.56 1.559l.311 1.872-.311.936zm5.299-9.046v-3.12l-.312-1.247.312-.936-.623-3.431c.311-.312.935-.312 1.558-.312.312.312.312.936.312 1.871.623.624 1.247.936 2.182.936h3.117l.312-.312h6.234c.624.312.624.624.624.936-.312 1.56-.624 3.119-.936 4.367l.312.312c-.312 3.119-1.247 5.927-2.182 8.734h-.935l-.935-.312v-.624c1.247-3.743 1.87-7.798 2.182-12.477l-1.559-.312-.623.312c-.624 4.055-1.559 7.798-3.117 10.918l-.624.312-.623-.312-.312-.624c1.247-3.12 2.182-6.551 2.806-9.982l-1.247-.312c-1.247 3.119-1.871 6.239-2.182 9.358h-1.247c-.624-.312-.935-.936-.624-1.872l1.559-7.798-1.559.312-.311.936.311.624-.311 1.559v.936.936 1.248h-.935z"/><path d="m257.112 120.007-1.246-.936v-1.247l.935-1.872 1.247-.312 2.805.936.312 1.56c-.312.935-1.247 1.247-1.871 1.559-.623 0-1.246 0-2.182.312z"/><path d="m272.075 127.182-.935-.936-.624-4.679v-2.495-2.496-3.119l-.312-1.56.312-.624h.624l.935.936v.936.624.312 5.926 2.496.936l.311 1.559h.312c3.117-2.495 6.546-4.679 9.975-6.55l.935.624.312.623h-.312c-2.182.936-4.052 2.184-5.922 3.432l-.312.624-4.364 3.743h-.935z"/><path d="m297.324 120.007c-1.871-.624-3.741-1.559-5.611-2.807v-.936l.935-.312 5.299 2.808v.935zm.935-5.303c-1.87-1.871-3.741-3.431-5.611-4.99v-.624c.312-.312.623-.624 1.247-.312 1.87 1.871 3.74 3.431 5.922 4.991v.624c-.311 0-.935.311-1.558.311zm-4.052 11.23c-.624-.312-.936-.936-.936-1.248 4.053-1.871 8.417-3.743 12.781-4.991v.312c-3.429 2.496-7.481 4.679-11.845 5.927zm9.351-11.23c-.935-2.183-1.559-4.679-1.87-7.174l.935-.624.935.624.312.936v1.871 1.56l.311.936v.312l.624 1.248c-.312.311-.624.623-1.247.311zm4.676.624-.624-.624v-2.807-1.56l-.311-3.119c.311-.312.623-.624.935-.312l.935.624.312.312v1.248 1.871.624 2.808l-.624.935z"/><path d="m321.949 118.448-1.558-1.56c-1.559-2.184-3.118-4.055-4.364-6.239.311-.312.935-.624 1.558-.312 1.559 1.872 3.117 3.744 4.676 5.927l.312.936v1.248zm-1.247 7.486-.935-1.248c2.806-1.871 5.299-3.743 7.793-5.614h.312v-.312c1.558-1.248 3.117-2.184 4.675-2.808v.624c-3.117 3.119-6.546 5.927-10.286 8.734h-.312v.312h-1.247z"/><path d="m343.146 120.007-1.247-.936v-1.247l.935-1.872 1.247-.312 2.805.936.312 1.56c-.312.935-1.247 1.247-1.87 1.559-.624 0-1.247 0-2.182.312z"/><path d="m357.485 127.182-.624-.624-.312-2.184c.936-3.431 1.871-6.862 2.806-10.293h.935c.624.312.935.623.935.935-1.247 3.432-2.182 7.175-3.117 10.606l-.312 1.56zm14.339-1.248-.624-.624c-1.247-4.055-2.494-8.422-3.74-12.477l.935-.312.935.624c1.247 4.055 2.494 8.11 3.429 12.477z"/><path d="m385.227 118.448-1.558-1.56c-1.559-2.184-3.117-4.055-4.364-6.239.311-.312.935-.624 1.558-.312 1.559 1.872 3.117 3.744 4.676 5.927l.312.936v1.248zm-1.247 7.486-.935-1.248c2.806-1.871 5.299-3.743 7.793-5.614h.312v-.312c1.558-1.248 3.117-2.184 4.676-2.808v.624c-3.118 3.119-6.546 5.927-10.287 8.734h-.312v.312h-1.247z"/><path d="m404.865 127.182-.935-.936-.623-2.495v-2.184-.624-.312-.312l.311-1.247v-2.808-3.119-1.56-.624-1.871l-.311-1.872c.311-.312.935-.312 1.247-.312l.935.624v.624 2.807.312l-.312 1.248v1.56.623.312c2.806.624 5.299 1.248 8.416 1.872h1.559l.935.624-.312.624-1.558.312h-1.559l-7.169-1.248-.312.936v2.807 3.431l.935 2.808-.312.624zm9.04-13.725-.935-.624c-.312-2.184-.935-4.367-.935-6.551.311-.312.935-.312 1.247-.312l.935.624v.936 1.56l.623 4.055zm4.052 1.247-.935-.935c-.311-2.496-.623-5.303-.935-7.799.312-.312.624-.624.935-.312l.935.624c.312 1.248.624 2.496.624 3.743v1.872 2.496z"/><path d="m427.932 127.182-.935-.936v-.624c.935-2.807 2.494-5.615 4.052-8.11-1.558-.624-3.428-1.248-4.987-1.872l-.312-.936c.312-.311.624-.311 1.247-.311 1.559.623 3.429 1.247 4.988 1.871 1.558-3.119 3.117-6.239 5.299-9.358h.935l.935.312v.936c-2.182 2.807-4.052 5.927-5.611 9.046l5.299 2.807v.312l-1.247.312-5.299-2.183c-1.558 2.807-3.117 5.614-3.74 8.734z"/><path d="m456.922 126.558-.935-.624v-.312-.312-1.56l-.312-1.559h.312v-1.56l-.312-2.495v-1.56l-.623-.624c-2.494 2.184-4.676 4.367-6.858 6.863h-.935l-.935-1.248c4.675-4.367 9.663-8.734 14.65-13.101l.935-.312.935.624v.624l-5.299 4.367v1.559l.312.936v1.56l.312.936v1.247 2.808 1.559l.623 1.248c-.623.624-1.247.936-1.87.936z"/><path d="m471.572 127.182-.935-.936-.623-2.495v-2.184-.624-.312-.312l.312-1.247v-2.808-3.119-1.56-.624-1.871l-.312-1.872c.312-.312.935-.312 1.247-.312l.935.624v.624 2.807.312l-.312 1.248v1.56.623.312c2.806.624 5.299 1.248 8.416 1.872h1.559l.935.624-.312.624-1.558.312h-1.559l-7.169-1.248-.312.936v2.807 3.431l.935 2.808-.311.624zm8.728-13.725-.935-.624c-.311-2.184-.935-4.367-.935-6.551.312-.312.935-.312 1.247-.312l.935.624v.936 1.56l.624 4.055zm4.053 1.247-.935-.935c-.312-2.496-.624-5.303-.936-7.799.312-.312.624-.624.936-.312l.935.624c.311 1.248.623 2.496.623 3.743v1.872 2.496z"/><path d="m494.328 125.622c-.624 0-1.247-.312-1.871-.936l-.311-.935v-1.56c.311-2.184.935-4.055 1.87-5.927 2.182-2.495 4.987-3.743 8.416-3.743 1.559 0 2.806.624 3.741 1.872 2.182 2.183 3.429 4.99 4.052 7.798v1.871l-.623.624h-.624c-.623-.312-.935-.624-.935-1.247.312-.624.624-1.248.312-1.872-.624-2.495-1.871-4.991-3.741-6.863l-.935-.623c-.935 3.431-2.805 6.55-4.987 9.67-.624.935-1.559 1.247-2.494 1.559h-1.87zm1.558-1.871c2.182-2.184 4.052-4.991 5.299-7.799l.312-1.248-.623-.311c-1.871.623-3.741 1.871-5.3 3.431-.935 1.871-1.558 3.743-1.87 5.927.312.311.624.623.935.311z"/><path d="m531.11 126.558-.935-.936v-.312l.623-.624h.312l1.247-3.431-.624-1.248c-.623-.624-1.558-.935-2.493-.935h-.312-.312l-4.052 1.871c-.312 1.56-.623 3.119-1.559 4.367-.623.312-1.246.624-2.182.624l-2.182-.936-.311-.936c1.247-1.559 2.493-3.119 4.364-4.055l.311-2.495v-.936-2.183l-.311-.624h-.312c-1.247.624-2.494.935-3.741.935l-.935-.935v-.312c1.559-.624 3.117-1.248 4.988-1.56v-.936l-.312-1.871 1.247-.312c.623.312.935.624.935 1.247l-.312.312.312.936h.935c.624-.312 1.559-.624 2.182-.624l.624.312v1.248l-.936.624h-2.182l-.623.312v2.183 1.872 1.248h.623c.936-.624 2.182-.936 3.118-1.248h2.182c.935.312 2.182.624 3.117 1.248.623.935.935 1.871.935 3.119-.312 1.56-.935 3.431-2.182 4.679zm-9.663-2.496.623-1.247h-.311l-.624.624-.312.935h.624zm14.027-7.174-1.247-.624c-.935-1.248-1.87-2.495-3.117-3.431v-.936l1.247-.312.935.624.623.936.936.936c.623.623 1.246 1.559 1.558 2.495-.312 0-.623.312-.935.312z"/><path d="m551.683 127.494-.935-.936v-5.927l-.312-2.183.624-.312 1.247.624.311.623h1.247l1.559-.623.311-.936-.935-1.872v-.312l-.311-.936h.311v-1.871l-.623-3.119h-.935l-4.676 1.247-.312 1.56v.312.312 2.183c-.935 4.055-1.558 7.799-2.493 11.542h-.936l-.935-.936v-.624c1.247-4.367 1.871-9.046 2.494-13.725l-1.559-1.56v-.935c.312-.312.936-.312 1.559-.312l.623.312 6.235-1.56.311-.312v-2.807-.624l1.247-.312c.624 0 .935.312.935.936h-.311v2.495c.623.312 1.247.624 1.87.312l1.247-.312h2.182l.623-.312 1.247.624v.312c-.312.312-.935.624-1.87.624h-3.429c-.935 0-1.87.312-2.494.936l1.247.935.624 3.12h1.558l.935-.312h2.182l.624.312v.624c-1.559.312-3.117.624-4.676 1.247l-.312 1.872.312.936.623.312h3.118l.623.624v4.679c0 .623-.312 1.559-.623 1.871h-.936l-.623-.312c-1.559.936-3.117 1.56-4.676 1.56h-3.117zm6.234-3.12 1.247-.935v-2.496l-.623-.936h-.624l-4.987 1.248-.312.312v3.431l.624.936h1.247z"/></g></svg>